<?xml version="1.0" encoding="UTF-8" standalone="no"?>
<!-- Generator: Adobe Illustrator 16.0.0, SVG Export Plug-In . SVG Version: 6.00 Build 0)  -->

<svg
   xmlns:dc="http://purl.org/dc/elements/1.1/"
   xmlns:cc="http://creativecommons.org/ns#"
   xmlns:rdf="http://www.w3.org/1999/02/22-rdf-syntax-ns#"
   xmlns:svg="http://www.w3.org/2000/svg"
   xmlns="http://www.w3.org/2000/svg"
   xmlns:sodipodi="http://sodipodi.sourceforge.net/DTD/sodipodi-0.dtd"
   xmlns:inkscape="http://www.inkscape.org/namespaces/inkscape"
   version="1.1"
   id="Ebene_1"
   x="0px"
   y="0px"
   width="124.2032"
   height="27.610001"
   viewBox="0 0 124.2032 27.610001"
   enable-background="new 0 0 175 29.619"
   xml:space="preserve"
   sodipodi:docname="brand-logo.svg"
   inkscape:version="0.92.1 r15371"><metadata
     id="metadata4543"><rdf:RDF><cc:Work
         rdf:about=""><dc:format>image/svg+xml</dc:format><dc:type
           rdf:resource="http://purl.org/dc/dcmitype/StillImage" /></cc:Work></rdf:RDF></metadata><defs
     id="defs4541" /><sodipodi:namedview
     pagecolor="#ffffff"
     bordercolor="#666666"
     borderopacity="1"
     objecttolerance="10"
     gridtolerance="10"
     guidetolerance="10"
     inkscape:pageopacity="0"
     inkscape:pageshadow="2"
     inkscape:window-width="1920"
     inkscape:window-height="1017"
     id="namedview4539"
     showgrid="false"
     inkscape:zoom="2"
     inkscape:cx="87.5"
     inkscape:cy="12.8005"
     inkscape:window-x="1912"
     inkscape:window-y="-8"
     inkscape:window-maximized="1"
     inkscape:current-layer="Ebene_1" /><g
     id="g4536"><g
       id="g4534"><g
         id="g4516"><path
           d="m 20.482,27.61 c 7.63,0 13.755,-6.125 13.755,-13.754 C 34.237,6.225 28.112,0 20.482,0 12.851,0 6.727,6.124 6.727,13.755 c 0,7.631 6.124,13.855 13.755,13.855"
           id="path4506"
           inkscape:connector-curvature="0"
           style="fill:#16ada0" /><path
           d="m 10.04,4.92 c -2.008,2.41 -3.313,5.522 -3.313,8.936 0,3.415 1.205,6.526 3.313,8.936 4.518,-0.502 7.932,-4.316 7.932,-8.936 0,-4.619 -3.514,-8.434 -7.932,-8.936 z"
           id="path4508"
           inkscape:connector-curvature="0"
           style="fill:#5ac5c0" /><path
           d="M 6.727,13.855 C 6.727,10.441 7.932,7.329 10.04,4.919 9.739,4.919 9.337,4.818 9.036,4.818 4.016,4.819 0,8.835 0,13.855 c 0,5.021 4.016,9.037 9.036,9.037 0.401,0 0.703,0 1.004,-0.101 C 7.932,20.382 6.727,17.269 6.727,13.855 Z"
           id="path4510"
           inkscape:connector-curvature="0"
           style="fill:#474d59" /><path
           d="m 17.972,22.791 c 5.02,0 9.036,-4.017 9.036,-9.036 0,-5.02 -4.016,-9.036 -9.036,-9.036 -5.02,0 -9.036,4.016 -9.036,9.036 0,5.019 4.016,9.036 9.036,9.036"
           id="path4512"
           inkscape:connector-curvature="0"
           style="fill:#5ac5c0" /><path
           d="m 8.936,13.855 c 0,3.313 1.807,6.225 4.518,7.832 2.711,-1.605 4.518,-4.418 4.518,-7.832 0,-3.414 -1.807,-6.225 -4.518,-7.831 -2.711,1.607 -4.518,4.418 -4.518,7.831 z"
           id="path4514"
           inkscape:connector-curvature="0"
           style="fill:#88d6d6" /></g><g
         id="g4532"><rect
           x="54.618"
           y="6.927"
           width="3.2130001"
           height="15.06"
           id="rect4518"
           style="fill:#16ada0" /><path
           d="M 45.783,7.731 C 45.482,7.43 45.18,7.128 44.679,7.028 44.277,6.927 43.775,6.827 43.273,6.827 c -0.502,0 -1.004,0.101 -1.506,0.201 v 2.309 c 0.603,0 1.004,0.101 1.104,0.402 0.1,0.301 0.201,0.803 0.201,1.506 v 10.742 h 3.213 v -8.533 c 0,-1.205 0.301,-2.209 0.903,-2.812 0.603,-0.602 1.406,-0.903 2.209,-0.903 0.904,0 1.707,0.301 2.51,0.903 l 1.004,-2.61 C 52.509,7.631 52.007,7.229 51.405,7.028 50.803,6.827 50.301,6.727 49.698,6.727 c -0.803,0 -1.506,0.201 -2.209,0.502 -0.703,0.402 -1.205,1.004 -1.506,1.807 0.202,-0.602 0.101,-1.004 -0.2,-1.305"
           id="path4520"
           inkscape:connector-curvature="0"
           style="fill:#16ada0" /><path
           d="m 60.643,17.569 c 0,0.904 0.201,1.707 0.603,2.311 0.301,0.604 0.803,1.104 1.305,1.506 0.502,0.401 1.104,0.604 1.807,0.803 0.703,0.102 1.406,0.201 2.108,0.201 0.803,0 1.506,-0.1 2.209,-0.201 0.703,-0.201 1.305,-0.401 1.907,-0.803 0.502,-0.402 1.004,-0.902 1.305,-1.406 0.301,-0.603 0.502,-1.305 0.502,-2.107 0,-0.904 -0.201,-1.605 -0.502,-2.209 -0.301,-0.501 -0.803,-1.004 -1.305,-1.305 -0.502,-0.301 -1.104,-0.602 -1.807,-0.703 -0.703,-0.201 -1.406,-0.301 -2.008,-0.402 -0.803,-0.1 -1.406,-0.301 -1.908,-0.602 -0.502,-0.301 -0.703,-0.703 -0.703,-1.305 0,-0.301 0,-0.603 0.201,-0.904 0.1,-0.201 0.301,-0.502 0.502,-0.603 0.201,-0.201 0.502,-0.301 0.803,-0.301 0.301,-0.1 0.603,-0.1 0.903,-0.1 0.301,0 0.603,0 0.904,0.1 0.301,0.101 0.603,0.201 0.803,0.301 0.201,0.201 0.402,0.401 0.603,0.603 0.201,0.201 0.201,0.603 0.201,0.904 h 2.912 c 0,-1.506 -0.402,-2.61 -1.406,-3.414 -1.004,-0.803 -2.309,-1.104 -3.916,-1.104 -0.703,0 -1.406,0.101 -2.108,0.301 -0.703,0.201 -1.305,0.502 -1.807,0.803 -0.502,0.402 -0.904,0.904 -1.205,1.406 -0.301,0.603 -0.502,1.305 -0.502,2.108 0,0.703 0.201,1.406 0.502,1.908 0.301,0.502 0.703,0.903 1.305,1.205 0.502,0.301 1.104,0.603 1.707,0.803 0.603,0.201 1.305,0.301 1.908,0.402 0.301,0.1 0.603,0.2 1.004,0.2 0.301,0.101 0.603,0.201 0.904,0.302 0.301,0.101 0.502,0.301 0.703,0.502 0.201,0.199 0.301,0.602 0.301,0.902 0,0.502 -0.101,0.803 -0.301,1.104 -0.201,0.302 -0.401,0.502 -0.603,0.703 -0.201,0.201 -0.502,0.301 -0.903,0.301 -0.301,0.102 -0.603,0.102 -0.904,0.102 -0.301,0 -0.603,0 -0.903,-0.102 -0.301,-0.1 -0.603,-0.2 -0.803,-0.401 -0.201,-0.2 -0.502,-0.401 -0.603,-0.703 -0.201,-0.301 -0.201,-0.603 -0.301,-1.004 h -3.414 z"
           id="path4522"
           inkscape:connector-curvature="0"
           style="fill:#16ada0" /><path
           d="M 78.213,12.851 V 1.104 H 75 v 20.883 h 3.213 v -6.426 h 1.104 c 0.201,0 0.402,0 0.603,0 0.201,0 0.402,-0.101 0.603,-0.101 l 3.313,6.526 h 3.212 v -0.301 l -3.815,-7.229 c 0.603,-0.401 1.205,-0.803 1.606,-1.305 0.401,-0.502 0.803,-1.104 1.004,-1.707 0.201,-0.603 0.401,-1.305 0.502,-2.108 0.101,-0.703 0.101,-1.506 0.101,-2.309 h -3.012 c 0,0.903 -0.101,1.707 -0.201,2.41 -0.101,0.703 -0.402,1.305 -0.703,1.908 -0.301,0.502 -0.703,0.903 -1.305,1.205 -0.502,0.301 -1.205,0.401 -1.908,0.401 h -1.104 z"
           id="path4524"
           inkscape:connector-curvature="0"
           style="fill:#16ada0" /><rect
           x="89.658997"
           y="6.927"
           width="3.2119999"
           height="15.06"
           id="rect4526"
           style="fill:#4d505b" /><path
           d="m 105.923,21.987 h 3.214 v -8.834 c 0,-0.904 -0.102,-1.807 -0.302,-2.611 -0.201,-0.803 -0.502,-1.506 -0.903,-2.108 -0.402,-0.603 -0.904,-1.004 -1.606,-1.406 -0.603,-0.301 -1.405,-0.502 -2.41,-0.502 -0.804,0 -1.606,0.201 -2.31,0.502 -0.804,0.301 -1.405,0.903 -1.908,1.807 0,-0.603 -0.1,-1.104 -0.4,-1.406 -0.302,-0.301 -0.604,-0.502 -1.004,-0.603 -0.402,-0.1 -0.904,-0.1 -1.404,-0.1 -0.502,0 -1.005,0.1 -1.406,0.201 v 2.309 c 0.302,0 0.603,0 0.703,0 0.201,0.101 0.301,0.201 0.401,0.301 0.101,0.201 0.101,0.402 0.201,0.703 0,0.301 0,0.703 0,1.105 V 21.987 H 100 v -8.533 c 0,-1.205 0.301,-2.209 0.803,-3.012 0.502,-0.703 1.305,-1.104 2.209,-1.104 0.903,0 1.506,0.301 2.008,1.004 0.502,0.703 0.703,1.606 0.703,2.811 v 8.834 z"
           id="path4528"
           inkscape:connector-curvature="0"
           style="fill:#4d505b" /><path
           d="m 119.479,9.538 c 0.401,0.101 0.703,0.402 1.004,0.603 0.301,0.301 0.502,0.603 0.703,1.104 0.201,0.401 0.201,0.904 0.201,1.506 h -6.627 c 0.1,-0.603 0.201,-1.105 0.401,-1.607 0.2,-0.401 0.502,-0.803 0.803,-1.104 0.302,-0.301 0.703,-0.502 1.104,-0.603 0.402,-0.101 0.804,-0.201 1.205,-0.201 0.402,10e-4 0.804,0.101 1.206,0.302 m -3.715,-2.41 c -0.804,0.301 -1.507,0.803 -2.109,1.406 -0.602,0.603 -1.104,1.406 -1.506,2.309 -0.4,0.904 -0.603,2.008 -0.603,3.313 0,1.305 0.101,2.41 0.502,3.414 0.302,1.005 0.804,1.908 1.406,2.611 0.602,0.703 1.405,1.205 2.31,1.606 0.903,0.401 1.907,0.502 2.911,0.502 0.804,0 1.707,-0.101 2.61,-0.302 0.904,-0.2 1.707,-0.502 2.51,-0.903 l -0.402,-2.51 c -0.703,0.401 -1.404,0.603 -2.309,0.803 -0.805,0.101 -1.607,0.201 -2.311,0.201 -1.205,0 -2.209,-0.401 -2.912,-1.104 -0.702,-0.803 -1.104,-1.808 -1.104,-3.212 h 9.236 c 0.201,-1.205 0.301,-2.41 0.102,-3.414 -0.102,-1.004 -0.402,-1.908 -0.904,-2.711 -0.502,-0.703 -1.104,-1.305 -1.907,-1.707 -0.804,-0.401 -1.808,-0.603 -2.912,-0.603 -1.002,-0.201 -1.806,0 -2.608,0.301"
           id="path4530"
           inkscape:connector-curvature="0"
           style="fill:#4d505b" /></g></g></g></svg>